<?xml version="1.0" encoding="utf-8"?>
<!-- Generator: Adobe Illustrator 26.0.1, SVG Export Plug-In . SVG Version: 6.00 Build 0)  -->
<svg version="1.1" id="Layer_1" xmlns="http://www.w3.org/2000/svg" xmlns:xlink="http://www.w3.org/1999/xlink" x="0px" y="0px"
	 viewBox="0 0 1000 1000" style="enable-background:new 0 0 1000 1000;" xml:space="preserve">
<style type="text/css">
	.st0{fill:#FDFEFF;stroke:#000000;stroke-width:1.2521;stroke-miterlimit:10;}
	.st1{fill:url(#SVGID_1_);}
	.st2{fill:url(#SVGID_00000001634903251922992980000003229217702030035634_);}
</style>
<path class="st0" d="M722.98,898.95H277.02c-97.19,0-175.97-78.79-175.97-175.97V277.02c0-97.19,78.79-175.97,175.97-175.97h445.96
	c97.19,0,175.97,78.79,175.97,175.97v445.96C898.95,820.17,820.17,898.95,722.98,898.95z"/>
<g>
	<g>
		<linearGradient id="SVGID_1_" gradientUnits="userSpaceOnUse" x1="445.8678" y1="334.9957" x2="678.0967" y2="719.2698">
			<stop  offset="0" style="stop-color:#2581C4"/>
			<stop  offset="1" style="stop-color:#2581C4;stop-opacity:0"/>
		</linearGradient>
		<path class="st1" d="M506.17,671.58c-62.83,0-117.45-23.14-162.54-68.82C298.4,556.37,275.5,500.3,275.5,436.03
			c0-66.43,23.17-122.4,68.88-166.38c44.54-43.91,99.71-65.93,164.05-65.3c45.83,0.59,85.95,11.94,122.71,34.7l0.12,0.08
			c35.38,22.4,63.07,52.66,82.3,89.93l10.93,21.19h-79.44l-4.33-6.29c-32.4-47.08-76.81-69.74-135.6-69.22
			c-42.95,0-80.48,15.82-111.67,47.01c-31.35,31.35-47.08,68.12-48.1,112.43c-1.01,45.79,14.24,84.56,46.61,118.51
			c32.46,32.92,71.6,49.61,116.35,49.61c20.7,0,41.43-4.48,61.62-13.33l9.32-4.23l7,5.75c0.37,0.3,0.74,0.64,1.11,0.98l0.24,0.22
			c12.36,11.68,21.07,25.4,25.89,40.77l3.66,11.65l-10.85,5.61c-0.77,0.4-1.54,0.75-2.31,1.1c-29.15,13.1-61.25,20.08-95.38,20.75
			C507.78,671.57,506.97,671.58,506.17,671.58z M505.83,233.38c-56.04,0-102.24,18.66-141.11,57.01l-0.13,0.13
			c-39.83,38.3-60.03,87.26-60.03,145.51c0,56.42,20.13,105.67,59.82,146.38c40.42,40.95,87.44,60.58,143.79,60.1
			c25.59-0.5,49.91-5.02,72.36-13.45c-2-3.54-4.35-6.9-7.09-10.13c-21.33,8.24-43.2,12.41-65.14,12.41
			c-52.85,0-98.99-19.64-137.13-58.36l-0.16-0.16c-37.48-39.26-55.89-86.13-54.72-139.31c1.19-51.43,20.23-95.94,56.61-132.32
			c36.84-36.84,81.28-55.52,132.09-55.52c65.43-0.62,117.69,24.83,155.18,75.51h15.02c-15.57-23.04-35.48-42.31-59.41-57.48
			c-32.13-19.88-67.35-29.8-107.67-30.31C507.35,233.39,506.59,233.38,505.83,233.38z"/>
	</g>
	<g>
		
			<linearGradient id="SVGID_00000101101729500702379790000004247622903352709008_" gradientUnits="userSpaceOnUse" x1="486.7096" y1="494.9098" x2="606.8287" y2="775.912">
			<stop  offset="0" style="stop-color:#2581C4"/>
			<stop  offset="1" style="stop-color:#2581C4;stop-opacity:0"/>
		</linearGradient>
		<path style="fill:url(#SVGID_00000101101729500702379790000004247622903352709008_);" d="M668.55,642.31
			c0.68,41.51-14.53,78.16-45.19,108.79c-30.29,29.62-67.2,44.57-109.84,44.57c-42.62,0-79.53-14.96-109.71-44.46
			c-11.99-11.73-21.74-24.88-29-39.05l-11.84-23.21h92.25l4.85,5.69c0.15,0.17,0.32,0.34,0.49,0.53
			c14.19,15.13,31.44,22.76,52.75,23.28c21.54,0.51,39.75-6.75,55.64-22.14c15.56-15.05,22.87-32.94,22.38-54.7
			c-0.21-6.67-1.2,3.85-2.99-1.95c-3.29-10.81-9.15-20.07-17.97-28.41c-12.33-11.69-30.41-21.29-53.75-28.56l-49.48-15.09
			c-58.67-18.21-94.07-66.34-94.73-128.76c-0.71-38.94,13.85-72.27,43.22-99c29.2-27.12,63.69-40.52,102.4-39.88
			c38.86,0.7,72.31,15.13,99.41,42.9c27.08,27.76,40.82,61.41,40.82,100.03v15.94h-81.31l0.45-16.37
			c0.49-17.5-5.19-32.13-17.33-44.76l-0.23-0.24c-11.69-12.67-25.75-19.3-43-20.28c-18.19-0.98-33.94,4.94-48.11,18.13
			c-13.53,12.55-19.6,26.78-19.11,44.74c0.49,29.33,14.02,47.07,42.62,55.94l56.24,17.53c37.02,11.52,65.94,28.75,85.9,51.23
			c10.64,11.97,18.89,25.59,24.56,40.53c3.08,8.14,5.45,16.72,7.05,25.75C667.61,640.04,668.46,632.56,668.55,642.31z"/>
	</g>
</g>
</svg>
